#!OML:ASF I:\Actors\actors\Patient Classification 2\Patient 1\Session 1\actor1.ASF
:FULLY-SPECIFIED
:DEGREES
519
root -0.869981 18.7537 5.30114 3.37398 1.6227 -3.87747
lowerback 7.33947 2.03917 -5.35017
upperback 1.5062 2.22425 -2.4912
thorax -2.6583 1.13748 0.210647
lowerneck -12.7573 0.810161 -1.96235
upperneck 34.8552 2.04736 -0.375197
head 13.9826 0.588467 0.513267
rclavicle -3.53837e-014 2.54444e-014
rhumerus -36.0167 47.3754 -83.325
rradius 110.501
rwrist 16.012
rhand -33.681 -37.4331
rfingers 7.12502
rthumb -6.87163 -67.3016
lclavicle -3.53837e-014 2.54444e-014
lhumerus 5.38637 -34.7366 63.4137
lradius 80.7229
lwrist 39.6218
lhand -1.56772 -26.443
lfingers 7.12502
lthumb 24.0879 2.06502
rfemur 0 0 0
rtibia 0
rfoot 0 0
rtoes 0
lfemur -8.58055 -9.91087 -9.03391
ltibia 22.4492
lfoot -23.2628 16.2511
ltoes -54.7753
520
root -0.870229 18.7503 5.29716 3.18758 1.41119 -3.81945
lowerback 7.66121 2.10832 -5.40169
upperback 1.53376 2.28787 -2.49506
thorax -2.81355 1.1715 0.217406
lowerneck -12.6609 0.848901 -1.82827
upperneck 34.5416 2.09115 -0.484715
head 13.8228 0.6153 0.449763
rclavicle 8.74653e-015 -1.59028e-015
rhumerus -36.4291 47.5817 -83.9965
rradius 110.4
rwrist 15.1659
rhand -34.7323 -36.2837
rfingers 7.12502
rthumb -7.88644 -66.1166
lclavicle 8.74653e-015 -1.59028e-015
lhumerus 5.22495 -34.7272 63.3644
lradius 80.8107
lwrist 39.6088
lhand -1.57984 -26.4449
lfingers 7.12502
lthumb 24.0763 2.06469
rfemur 0 0 0
rtibia 0
rfoot 0 0
rtoes 0
lfemur -8.28292 -9.79557 -9.15176
ltibia 22.3928
lfoot -23.2736 16.2534
ltoes -54.6981
521
root -0.870403 18.7476 5.29342 3.06123 1.14898 -3.7222
lowerback 7.96778 2.20439 -5.43449
upperback 1.54879 2.38838 -2.5133
thorax -2.97368 1.22386 0.19444
lowerneck -12.5787 0.896077 -1.82444
upperneck 34.2694 2.15999 -0.518152
head 13.6834 0.645852 0.444046
rclavicle 1.27222e-014 2.54444e-014
rhumerus -36.3459 46.9086 -84.1398
rradius 111.817
rwrist 15.811
rhand -34.3694 -36.1844
rfingers 7.12502
rthumb -7.53616 -66.0302
lclavicle 1.27222e-014 2.54444e-014
lhumerus 5.08085 -34.7219 63.3293
lradius 80.886
lwrist 39.5865
lhand -1.59269 -26.5283
lfingers 7.12502
lthumb 24.064 1.9829
rfemur 0 0 0
rtibia 0
rfoot 0 0
rtoes 0
lfemur -8.04698 -9.56045 -9.30021
ltibia 22.3448
lfoot -23.2523 16.2239
ltoes -54.714
522
root -0.868725 18.7476 5.28897 3.05224 0.933852 -3.64424
lowerback 8.19767 2.2613 -5.35629
upperback 1.5065 2.44872 -2.55648
thorax -3.14331 1.2562 0.0891526
lowerneck -12.5058 0.99033 -1.87744
upperneck 34.1438 2.29845 -0.490489
head 13.6094 0.705379 0.483781
rclavicle 6.63941e-014 -3.18055e-014
rhumerus -35.9311 45.8268 -84.1048
rradius 113.801
rwrist 16.1176
rhand -35.1614 -36.1736
rfingers 7.12502
rthumb -8.30057 -65.9905
lclavicle 6.63941e-014 -3.18055e-014
lhumerus 4.83056 -34.682 63.3333
lradius 80.9718
lwrist 39.6052
lhand -1.48346 -26.6232
lfingers 7.12502
lthumb 24.1687 1.8741
rfemur 0 0 0
rtibia 0
rfoot 0 0
rtoes 0
lfemur -7.96514 -9.38347 -9.40686
ltibia 22.3074
lfoot -23.2608 16.2261
ltoes -54.7208
523
root -0.866398 18.7505 5.28633 3.13037 0.811087 -3.59993
lowerback 8.26997 2.24649 -5.21541
upperback 1.46138 2.43205 -2.59981
thorax -3.22221 1.24826 -0.0362585
lowerneck -12.4611 1.11275 -1.86114
upperneck 34.154 2.50137 -0.569642
head 13.6044 0.785094 0.47938
rclavicle 3.45885e-014 1.74931e-014
rhumerus -35.143 44.5553 -83.7689
rradius 115.713
rwrist 16.8271
rhand -35.5099 -36.058
rfingers 7.12502
rthumb -8.63686 -65.8613
lclavicle 3.45885e-014 1.74931e-014
lhumerus 4.52435 -34.5531 63.3358
lradius 81.0811
lwrist 39.6731
lhand -1.40118 -26.6294
lfingers 7.12502
lthumb 24.2476 1.85742
rfemur 0 0 0
rtibia 0
rfoot 0 0
rtoes 0
lfemur -8.00611 -9.32988 -9.46019
ltibia 22.2776
lfoot -23.2829 16.294
ltoes -54.7079
524
root -0.865641 18.7531 5.28683 3.22347 0.787364 -3.57359
lowerback 8.16916 2.19734 -5.0954
upperback 1.46297 2.38467 -2.61744
thorax -3.15699 1.22263 -0.111641
lowerneck -12.4805 1.18418 -1.92165
upperneck 34.3269 2.63652 -0.587153
head 13.684 0.830421 0.504481
rclavicle -3.18055e-014 2.70347e-014
rhumerus -34.304 43.3799 -83.2804
rradius 117.534
rwrist 16.6562
rhand -36.6493 -35.6334
rfingers 7.12502
rthumb -9.73631 -65.3883
lclavicle -3.18055e-014 2.70347e-014
lhumerus 4.3463 -34.4543 63.3153
lradius 81.1076
lwrist 39.7355
lhand -1.46809 -26.5399
lfingers 7.12502
lthumb 24.1835 1.95548
rfemur 0 0 0
rtibia 0
rfoot 0 0
rtoes 0
lfemur -8.08516 -9.42068 -9.48519
ltibia 22.2629
lfoot -23.3433 16.3923
ltoes -54.62
525
root -0.865269 18.7547 5.28919 3.29729 0.846042 -3.58572
lowerback 7.98734 2.15663 -4.9458
upperback 1.47328 2.35686 -2.64707
thorax -3.0368 1.20564 -0.21479
lowerneck -12.5062 1.18191 -2.06911
upperneck 34.5948 2.61068 -0.374812
head 13.8026 0.823674 0.613356
rclavicle -4.77083e-014 6.20208e-014
rhumerus -33.6797 42.3378 -82.7618
rradius 118.598
rwrist 17.3124
rhand -36.2485 -36.9247
rfingers 7.12502
rthumb -9.3496 -66.6973
lclavicle -4.77083e-014 6.20208e-014
lhumerus 4.32363 -34.5445 63.2563
lradius 81.0206
lwrist 39.7612
lhand -1.51536 -26.4333
lfingers 7.12502
lthumb 24.1382 2.06807
rfemur 0 0 0
rtibia 0
rfoot 0 0
rtoes 0
lfemur -8.16981 -9.58546 -9.45966
ltibia 22.2671
lfoot -23.4379 16.4457
ltoes -54.4948
526
root -0.863725 18.756 5.29274 3.3451 0.970415 -3.63807
lowerback 7.78743 2.11069 -4.76342
upperback 1.49384 2.32582 -2.68627
thorax -2.89431 1.18653 -0.344892
lowerneck -12.5378 1.14555 -2.16585
upperneck 34.7722 2.50793 -0.138533
head 13.8836 0.794952 0.71128
rclavicle -9.54166e-015 2.22639e-014
rhumerus -33.4884 41.8902 -82.4385
rradius 118.474
rwrist 17.1583
rhand -36.0186 -37.0699
rfingers 7.12502
rthumb -9.12777 -66.8524
lclavicle -9.54166e-015 2.22639e-014
lhumerus 4.38828 -34.7004 63.1591
lradius 80.9157
lwrist 39.7259
lhand -1.45711 -26.3425
lfingers 7.12502
lthumb 24.194 2.15145
rfemur 0 0 0
rtibia 0
rfoot 0 0
rtoes 0
lfemur -8.26225 -9.65478 -9.38383
ltibia 22.2851
lfoot -23.4596 16.409
ltoes -54.485
527
root -0.862115 18.7571 5.29648 3.39096 1.09198 -3.72253
lowerback 7.55266 2.05656 -4.63796
upperback 1.52696 2.2829 -2.68092
thorax -2.7233 1.1618 -0.394632
lowerneck -12.5993 1.10483 -2.17195
upperneck 34.848 2.41879 -0.0421034
head 13.9303 0.766692 0.738906
rclavicle 4.77083e-015 -3.81667e-014
rhumerus -33.5927 42.1632 -82.1771
rradius 116.914
rwrist 17.9549
rhand -35.848 -36.2305
rfingers 7.12502
rthumb -8.96311 -66.0201
lclavicle 4.77083e-015 -3.81667e-014
lhumerus 4.48322 -34.7639 63.0904
lradius 80.8288
lwrist 39.6535
lhand -1.37397 -26.3106
lfingers 7.12502
lthumb 24.2737 2.17275
rfemur 0 0 0
rtibia 0
rfoot 0 0
rtoes 0
lfemur -8.35756 -9.73924 -9.28011
ltibia 22.3141
lfoot -23.4756 16.4188
ltoes -54.5081
